<svg xmlns="http://www.w3.org/2000/svg" viewBox="0 0 1021.25 794.13"><g id="Layer_2" data-name="Layer 2"><g id="Layer_1-2" data-name="Layer 1"><path d="M497.09,206,170.22,475.21V765.77a28.37,28.37,0,0,0,28.37,28.36l198.67-.51a28.37,28.37,0,0,0,28.22-28.37V595.57a28.36,28.36,0,0,1,28.37-28.36H567.31a28.36,28.36,0,0,1,28.37,28.36V765.13A28.36,28.36,0,0,0,624,793.58H624l198.6.55A28.37,28.37,0,0,0,851,765.77V475L524.21,206a21.61,21.61,0,0,0-27.12,0Zm226.27-56L564.63,19.39a85.09,85.09,0,0,0-108.14,0L7.72,389a21.26,21.26,0,0,0-2.84,29.95h0l45.21,55a21.29,21.29,0,0,0,30,2.92l0,0,417-343.48a21.61,21.61,0,0,1,27.12,0l417,343.48a21.28,21.28,0,0,0,30-2.83h0l45.2-55a21.28,21.28,0,0,0-2.92-29.94l-.09-.07h0L865.19,266.81Z"/></g></g></svg>