<svg xmlns="http://www.w3.org/2000/svg" viewBox="0 0 288.57 288.57"><defs><style>.cls-1{fill:#fff;}</style></defs><g id="Layer_2" data-name="Layer 2"><g id="Layer_1-2" data-name="Layer 1"><path class="cls-1" d="M284.89,113.37H175.2V3.68A3.68,3.68,0,0,0,171.52,0H117.05a3.68,3.68,0,0,0-3.68,3.68V113.37H3.68A3.68,3.68,0,0,0,0,117.05v54.47a3.68,3.68,0,0,0,3.68,3.68H113.37V284.89a3.68,3.68,0,0,0,3.68,3.68h54.47a3.68,3.68,0,0,0,3.68-3.68V175.2H284.89a3.68,3.68,0,0,0,3.68-3.68V117.05A3.68,3.68,0,0,0,284.89,113.37Z"/></g></g></svg>