<svg xmlns="http://www.w3.org/2000/svg" viewBox="0 0 836.74 836.74"><g id="Layer_2" data-name="Layer 2"><g id="Layer_1-2" data-name="Layer 1"><path d="M380.21,380.19a54,54,0,1,0,76.34,0A54,54,0,0,0,380.21,380.19ZM418.37,0C187.31,0,0,187.31,0,418.37S187.31,836.74,418.37,836.74s418.37-187.3,418.37-418.37S649.44,0,418.37,0Zm212.8,249.76L519.88,493.27a53.93,53.93,0,0,1-26.61,26.61L249.77,631.17c-28.08,12.83-57-16.11-44.19-44.2l111.3-243.52a53.87,53.87,0,0,1,26.61-26.6L587,205.56c28.09-12.82,57,16.11,44.19,44.2Z"/></g></g></svg>